<?xml version="1.0" encoding="UTF-8"?>
<svg width="21px" height="20px" viewBox="0 0 21 20" version="1.1" xmlns="http://www.w3.org/2000/svg" xmlns:xlink="http://www.w3.org/1999/xlink">
    <!-- Generator: Sketch 52.2 (67145) - http://www.bohemiancoding.com/sketch -->
    <title>ic-message</title>
    <desc>Created with Sketch.</desc>
    <defs>
        <filter x="-2.3%" y="-14.4%" width="104.5%" height="132.7%" filterUnits="objectBoundingBox" id="filter-1">
            <feOffset dx="0" dy="1" in="SourceAlpha" result="shadowOffsetOuter1"></feOffset>
            <feGaussianBlur stdDeviation="1" in="shadowOffsetOuter1" result="shadowBlurOuter1"></feGaussianBlur>
            <feColorMatrix values="0 0 0 0 0.188235294   0 0 0 0 0.337254902   0 0 0 0 0.729411765  0 0 0 1 0" type="matrix" in="shadowBlurOuter1" result="shadowMatrixOuter1"></feColorMatrix>
            <feMerge>
                <feMergeNode in="shadowMatrixOuter1"></feMergeNode>
                <feMergeNode in="SourceGraphic"></feMergeNode>
            </feMerge>
        </filter>
    </defs>
    <g id="landing" stroke="none" stroke-width="1" fill="none" fill-rule="evenodd">
        <g id="home" transform="translate(-246.000000, -545.000000)" fill="#FFFFFF" fill-rule="nonzero">
            <g id="hero" transform="translate(0.000000, 52.000000)">
                <g id="content--left" transform="translate(219.000000, 74.000000)">
                    <g id="form--demo" transform="translate(0.000000, 194.000000)">
                        <g id="btn-go" filter="url(#filter-1)" transform="translate(14.000000, 208.000000)">
                            <path d="M25.5623413,18 L21.4448192,18 C17.8854449,18 15.0000019,20.8795189 15.0000019,24.4315856 C14.9975532,27.6266751 17.3458134,30.3391297 20.5139011,30.8006418 C20.6486381,31.6478759 20.5929928,32.5144044 20.3509905,33.337545 C20.2926295,33.5349028 20.3572705,33.7480017 20.5155147,33.8799245 C20.6737589,34.0118473 20.8953911,34.0374044 21.0796129,33.9449725 C22.1537491,33.4090071 23.6718616,32.4103247 24.4810442,30.8685308 L25.5551804,30.8685308 C27.2644522,30.8685308 28.9037167,30.1909192 30.1123544,28.984763 C31.3209921,27.7786067 31.9999977,26.1427078 31.9999977,24.4369452 C32.0029655,20.8855751 29.1210168,18.0039447 25.5623413,18 Z M20.9077511,25.3748848 C20.3886757,25.3748848 19.9678819,24.9549549 19.9678819,24.4369452 C19.9678819,23.9189355 20.3886757,23.4990056 20.9077511,23.4990056 C21.4268265,23.4990056 21.8476203,23.9189355 21.8476203,24.4369452 C21.8480955,24.6857024 21.7495294,24.9244595 21.5736053,25.1006924 C21.3976813,25.2769253 21.1588103,25.3761979 20.9095413,25.3766713 L20.9077511,25.3748848 Z M23.5053705,25.3748848 C22.9862951,25.3748848 22.5655013,24.9549549 22.5655013,24.4369452 C22.5655013,23.9189355 22.9862951,23.4990056 23.5053705,23.4990056 C24.0244459,23.4990056 24.4452397,23.9189355 24.4452397,24.4369452 C24.4457149,24.6857024 24.3471488,24.9244595 24.1712247,25.1006924 C23.9953007,25.2769253 23.7564297,25.3761979 23.5071607,25.3766713 L23.5053705,25.3748848 Z M26.1029899,25.3748848 C25.5839145,25.3748848 25.1631207,24.9549549 25.1631207,24.4369452 C25.1631207,23.9189355 25.5839145,23.4990056 26.1029899,23.4990056 C26.6220653,23.4990056 27.0428591,23.9189355 27.0428591,24.4369452 C27.0433343,24.6857024 26.9447682,24.9244595 26.7688442,25.1006924 C26.5929201,25.2769253 26.3540491,25.3761979 26.1047801,25.3766713 L26.1029899,25.3748848 Z" id="ic-message"></path>
                        </g>
                    </g>
                </g>
            </g>
        </g>
    </g>
</svg>