<?xml version="1.0" encoding="UTF-8"?>
<svg width="116px" height="20px" viewBox="0 0 116 20" version="1.1" xmlns="http://www.w3.org/2000/svg" xmlns:xlink="http://www.w3.org/1999/xlink">
    <!-- Generator: Sketch 52.2 (67145) - http://www.bohemiancoding.com/sketch -->
    <title>Routable_Wordmark_Black</title>
    <desc>Created with Sketch.</desc>
    <g id="Symbols" stroke="none" stroke-width="1" fill="none" fill-rule="evenodd">
        <g id="marketing--nav" transform="translate(-217.000000, -16.000000)" fill="#FFFFFF">
            <g id="nav">
                <g id="content--left" transform="translate(217.000000, 16.000000)">
                    <g id="Routable_Wordmark_Black">
                        <g>
                            <path d="M26.44,5.62406015 C24.0538462,5.62406015 21.8784615,6.45263158 20.3138462,7.9593985 C18.8124543,9.39926319 17.9702078,11.3711549 17.9784615,13.4270677 C17.9784615,17.3368421 20.8153846,19.9684211 25.0353846,19.9684211 C27.4215385,19.9684211 29.5969231,19.1398496 31.1615385,17.6330827 C32.6629303,16.193218 33.5051769,14.2213263 33.4969231,12.1654135 C33.4969231,8.25263158 30.6615385,5.62406015 26.44,5.62406015 Z M25.4015385,15.9654135 C23.5553846,15.9654135 22.72,14.5533835 22.72,13.1533835 C22.72,11.1759398 24.1938462,9.62706767 26.0738462,9.62706767 C27.6692308,9.62706767 28.7830769,10.7954887 28.7830769,12.4676692 C28.7830769,14.3954887 27.2661538,15.9654135 25.4015385,15.9654135 Z" id="Shape" fill-rule="nonzero"></path>
                            <path d="M44.2892308,12.8015038 C44.1584615,13.9834586 43.6261538,15.9593985 41.52,15.9593985 C40.9046154,15.9593985 40.4507692,15.7969925 40.1430769,15.4646617 C39.7061538,14.993985 39.5553846,14.1789474 39.6815385,12.9759398 L40.3461538,6.81052632 C40.3688982,6.5979535 40.2980111,6.38596496 40.151214,6.22755653 C40.0044169,6.0691481 39.7955843,5.97929179 39.5769231,5.98045113 L36.4415385,5.98045113 C36.046081,5.97835561 35.7134301,6.26968782 35.6723077,6.65413534 L34.8830769,14.0105263 C34.6892308,15.8796992 34.7292308,17.2556391 35.5092308,18.3458647 C36.2630769,19.3894737 37.5738462,19.9413534 39.3015385,19.9413534 C41.1353846,19.9413534 42.6984615,19.324812 43.7030769,18.2240602 L43.6446154,18.7849624 C43.6228056,18.9970451 43.6941148,19.2082096 43.8408047,19.3659288 C43.9874946,19.5236481 44.1957786,19.6130988 44.4138462,19.6120301 L47.5846154,19.6120301 C47.9800728,19.6141256 48.3127238,19.3227934 48.3538462,18.9383459 L49.6415385,6.80902256 C49.6638149,6.59669462 49.5927164,6.38511839 49.445973,6.22705476 C49.2992296,6.06899114 49.0906717,5.9793376 48.8723077,5.98045113 L45.7046154,5.98045113 C45.3091579,5.97835561 44.976507,6.26968782 44.9353846,6.65413534 L44.2892308,12.8015038 Z" id="Path"></path>
                            <path d="M51.8461538,18.8120301 L52.8923077,9.51729323 L51.4461538,9.51729323 C51.2274926,9.51845257 51.01866,9.42859626 50.8718629,9.27018783 C50.7250658,9.1117794 50.6541788,8.89979087 50.6769231,8.68721805 L50.8953846,6.65263158 C50.9372413,6.26878051 51.2696881,5.97827696 51.6646154,5.98045113 L53.2723077,5.98045113 L53.8461538,0.806015038 C53.8887428,0.422760525 54.2209863,0.133084181 54.6153846,0.135338346 L57.9107692,0.135338346 C58.1300267,0.134084393 58.3394115,0.224346016 58.4863166,0.383445366 C58.6332217,0.542544716 58.703684,0.755359551 58.68,0.968421053 L58.1230769,5.98045113 L59.8830769,5.98045113 C60.1017381,5.97929179 60.3105707,6.0691481 60.4573678,6.22755653 C60.604165,6.38596496 60.675052,6.5979535 60.6523077,6.81052632 L60.4153846,8.84360902 C60.3742622,9.22805654 60.0416113,9.51938875 59.6461538,9.51729323 L57.7230769,9.51729323 L56.8584615,18.9609023 C56.8225362,19.3495216 56.4884348,19.646696 56.0892308,19.6451128 L52.5969231,19.6451128 C52.3808911,19.6412832 52.1764671,19.5488228 52.0336477,19.3903448 C51.8908283,19.2318669 51.822783,19.0219849 51.8461538,18.8120301 Z" id="Path"></path>
                            <path d="M72.1092308,7.43157895 C71.3,6.31578947 69.8461538,5.65112782 68.1538462,5.65112782 C64.0784615,5.65112782 60.7692308,9.16390977 60.7692308,13.4827068 C60.7692308,17.2255639 63.2661538,19.9488722 66.7046154,19.9488722 C68.3723077,19.9488722 69.9353846,19.3082707 70.9569231,18.2421053 L70.8923077,18.7804511 C70.866729,18.9944855 70.9363334,19.2089599 71.083457,19.3694464 C71.2305807,19.5299329 71.4410809,19.6210042 71.6615385,19.6195489 L74.8230769,19.6195489 C75.2180042,19.621723 75.550451,19.3312195 75.5923077,18.9473684 L76.9061538,6.81804511 C76.9288982,6.60547229 76.8580111,6.39348376 76.711214,6.23507533 C76.5644169,6.0766669 76.3555843,5.98681059 76.1369231,5.98796992 L72.9553846,5.98796992 C72.5593957,5.9859517 72.2265399,6.27811404 72.1861538,6.66315789 L72.1092308,7.43157895 Z M71.5661538,12.4676692 C71.5661538,14.3954887 70.0492308,15.9654135 68.1815385,15.9654135 C66.5861538,15.9654135 65.4723077,14.8090226 65.4723077,13.1533835 C65.4723077,11.2090226 66.9892308,9.62706767 68.8569231,9.62706767 C70.4523077,9.62406015 71.5661538,10.7954887 71.5661538,12.4676692 Z" id="Shape" fill-rule="nonzero"></path>
                            <path d="M87.6507692,5.65112782 C85.9707692,5.65112782 84.3907692,6.3037594 83.3630769,7.3924812 L84.0876923,0.833082707 C84.1113763,0.620021205 84.040914,0.40720637 83.8940089,0.24810702 C83.7471038,0.0890076702 83.537719,-0.00125395237 83.3184615,2.67125392e-16 L80.1538462,2.67125392e-16 C79.7589189,-0.00217416344 79.4264721,0.288329382 79.3846154,0.672180451 L77.4323077,18.7819549 C77.4095634,18.9945277 77.4804504,19.2065162 77.6272475,19.3649247 C77.7740447,19.5233331 77.9828772,19.6131894 78.2015385,19.6120301 L81.3692308,19.6120301 C81.7646882,19.6141256 82.0973392,19.3227934 82.1384615,18.9383459 L82.2184615,18.1864662 C82.9,19.1112782 84.2092308,19.9413534 86.2,19.9413534 C90.2769231,19.9413534 93.5953846,16.4285714 93.5953846,12.1097744 C93.5861538,8.36691729 91.0892308,5.65112782 87.6507692,5.65112782 Z M88.8430769,12.4676692 C88.8430769,14.3954887 87.3261538,15.9654135 85.4584615,15.9654135 C83.88,15.9654135 82.7769231,14.8090226 82.7769231,13.1533835 C82.7769231,11.2090226 84.2815385,9.62706767 86.1323077,9.62706767 C87.9830769,9.62706767 88.8430769,11.0992481 88.8430769,12.4676692 Z" id="Shape" fill-rule="nonzero"></path>
                            <path d="M95.2307692,19.6120301 L98.4,19.6120301 C98.7949272,19.6142042 99.1273741,19.3237007 99.1692308,18.9398496 L101.126154,0.831578947 C101.149367,0.618761604 101.078692,0.406360205 100.931841,0.247606533 C100.78499,0.088852861 100.575882,-0.00120614288 100.356923,-2.30497994e-16 L97.1876923,-2.30497994e-16 C96.7927651,-0.00217416344 96.4603182,0.288329382 96.4184615,0.672180451 L94.4692308,18.7819549 C94.4466268,18.9932245 94.5165068,19.2039819 94.661597,19.3621299 C94.8066873,19.520278 95.0134477,19.611058 95.2307692,19.6120301 Z" id="Path"></path>
                            <path d="M109.195385,5.62406015 C106.793846,5.62406015 104.741538,6.43609023 103.258462,7.97142857 C101.873846,9.41353383 101.104615,11.4 101.104615,13.5639098 C101.104615,17.5744361 103.647692,19.9684211 107.909231,19.9684211 C111.572308,19.9684211 114.541538,18.0887218 115.293846,15.2902256 C115.310613,15.2286908 115.297098,15.1630334 115.257288,15.1126251 C115.217479,15.0622167 115.155918,15.0328106 115.090769,15.0330827 L111.207692,15.0330827 C110.951071,15.0296225 110.708815,15.1485792 110.558462,15.3518797 C110.004353,16.0932276 109.123892,16.5344037 108.184615,16.5413534 C107.336923,16.5413534 106.703077,16.3293233 106.298462,15.9112782 C105.947692,15.5473684 105.755385,15.0090226 105.724615,14.3278195 C105.721693,14.2462474 105.752815,14.1670175 105.810839,14.108318 C105.868862,14.0496185 105.948802,14.0164913 106.032308,14.0165414 L115.176923,14.0165414 C115.321753,14.0206658 115.449903,13.9254687 115.484615,13.7879699 C115.604615,13.3067669 115.867692,12.1774436 115.867692,11.5067669 C115.86,7.98796992 113.181538,5.62406015 109.195385,5.62406015 Z M106.401538,11.1879699 C106.302859,11.1887085 106.209805,11.1431399 106.15133,11.0654426 C106.092854,10.9877452 106.076053,10.8873479 106.106154,10.7954887 C106.481538,9.58195489 107.538462,8.82706767 108.943077,8.82706767 C109.712308,8.82706767 110.327692,9.06165414 110.736923,9.50526316 C111.070226,9.88954884 111.252418,10.3774087 111.250769,10.881203 C111.250769,11.0473037 111.113011,11.1819549 110.943077,11.1819549 L106.401538,11.1879699 Z" id="Shape" fill-rule="nonzero"></path>
                            <path d="M13.5384615,13.4406015 C16.3353846,12.1353383 18.0615385,9.50225564 18.0615385,6.51428571 C18.0615385,4.73984962 17.4461538,3.11428571 16.3076923,1.93383459 C15.0953846,0.669172932 13.4076923,-2.2285098e-16 11.4261538,-2.2285098e-16 L3.67846154,-2.2285098e-16 C3.2835343,-0.00217416344 2.95108746,0.288329382 2.90923077,0.672180451 L2.29384615,6.36090226 C2.7346467,6.37337069 3.17581493,6.36232671 3.61538462,6.32781955 C4.47283125,6.25602286 5.32221713,6.11111055 6.15384615,5.89473684 C6.43384615,5.82105263 6.70615385,5.73533835 6.97692308,5.64511278 L7.24769231,3.11879699 C7.25476213,3.05510128 7.29641213,3.00007735 7.35666024,2.97483915 C7.41690836,2.94960095 7.48639691,2.95806845 7.53846154,2.99699248 L12.5292308,6.73684211 C12.5758839,6.77158766 12.6024883,6.82622402 12.6006563,6.88352569 C12.5988243,6.94082736 12.5687817,6.99373342 12.52,7.02556391 L6.72153846,10.7654135 C6.66314085,10.8027009 6.58805039,10.8039857 6.52835339,10.768719 C6.4686564,10.7334522 6.43491169,10.6678717 6.44153846,10.6 L6.65076923,8.66015038 C5.6408616,8.75754981 4.62418444,8.76861937 3.61230769,8.69323308 C2.60598244,8.60975323 1.6107516,8.42789186 0.641538462,8.15037594 C0.521538462,8.11729323 0.403076923,8.08120301 0.286153846,8.04511278 C0.196074958,8.01688817 0.0976451758,8.04853617 0.0422996525,8.1235189 C-0.0130458708,8.19850162 -0.0127321318,8.29978233 0.0430769231,8.37443609 L1.78,10.6631579 L0.955384615,18.7834586 C0.932640297,18.9960315 1.00352736,19.20802 1.15032447,19.3664284 C1.29712158,19.5248369 1.50595417,19.6146932 1.72461538,19.6135338 L5.14,19.6135338 C5.53545744,19.6156293 5.8681084,19.3242971 5.90923077,18.9398496 L6.37076923,14.562406 C6.3866283,14.40815 6.5198529,14.2909524 6.67846154,14.2917293 L8.03384615,14.2917293 C8.1480314,14.2906146 8.25345731,14.3514013 8.30769231,14.4496241 L10.9230769,19.2165414 C11.0571587,19.4599998 11.3171271,19.6118849 11.6,19.6120301 L15.6123077,19.6120301 C15.8821453,19.6121017 16.1322913,19.4739683 16.2714919,19.2480212 C16.4106926,19.0220741 16.4185917,18.741355 16.2923077,18.5082707 L13.5384615,13.4406015 Z" id="Path"></path>
                        </g>
                    </g>
                </g>
            </g>
        </g>
    </g>
</svg>