<?xml version="1.0" encoding="UTF-8"?>
<svg width="162px" height="28px" viewBox="0 0 162 28" version="1.1" xmlns="http://www.w3.org/2000/svg" xmlns:xlink="http://www.w3.org/1999/xlink">
    <!-- Generator: Sketch 52.2 (67145) - http://www.bohemiancoding.com/sketch -->
    <title>Routable_Wordmark_Black</title>
    <desc>Created with Sketch.</desc>
    <g id="Symbols" stroke="none" stroke-width="1" fill="none" fill-rule="evenodd">
        <g id="section-footer" transform="translate(-220.000000, -60.000000)" fill="#1B2C48">
            <g id="content">
                <g transform="translate(220.000000, 55.000000)">
                    <g id="content--left" transform="translate(0.000000, 5.000000)">
                        <g id="Routable_Wordmark_Black">
                            <path d="M36.9248276,7.87368421 C33.5924403,7.87368421 30.5544032,9.03368421 28.3693369,11.1431579 C26.2725655,13.1589685 25.0963246,15.9196168 25.1078515,18.7978947 C25.1078515,24.2715789 29.0697613,27.9557895 34.9632095,27.9557895 C38.2955968,27.9557895 41.333634,26.7957895 43.5187003,24.6863158 C45.6154716,22.6705052 46.7917125,19.9098568 46.7801857,17.0315789 C46.7801857,11.5536842 42.8204244,7.87368421 36.9248276,7.87368421 Z M35.4745623,22.3515789 C32.896313,22.3515789 31.7296552,20.3747368 31.7296552,18.4147368 C31.7296552,15.6463158 33.7879576,13.4778947 36.4134748,13.4778947 C38.6415119,13.4778947 40.1970557,15.1136842 40.1970557,17.4547368 C40.1970557,20.1536842 38.0785942,22.3515789 35.4745623,22.3515789 Z" id="Shape" fill-rule="nonzero"></path>
                            <path d="M61.8522016,17.9221053 C61.6695756,19.5768421 60.9261804,22.3431579 57.9848276,22.3431579 C57.1254111,22.3431579 56.4915915,22.1157895 56.0618833,21.6505263 C55.4516976,20.9915789 55.2411406,19.8505263 55.417321,18.1663158 L56.3454907,9.53473684 C56.3772543,9.23713489 56.2782569,8.94035095 56.0732471,8.71857914 C55.8682374,8.49680734 55.5765919,8.37100851 55.2712202,8.37263158 L50.8924934,8.37263158 C50.3402166,8.36969786 49.8756523,8.77756295 49.8182228,9.31578947 L48.7160212,19.6147368 C48.445305,22.2315789 48.5011671,24.1578947 49.5904775,25.6842105 C50.6432626,27.1452632 52.4738196,27.9178947 54.8866313,27.9178947 C57.4476923,27.9178947 59.6306101,27.0547368 61.0336074,25.5136842 L60.9519629,26.2989474 C60.9215044,26.5958631 61.0210913,26.8914934 61.2259514,27.1123004 C61.4308115,27.3331073 61.7216908,27.4583383 62.0262334,27.4568421 L66.4543767,27.4568421 C67.0066534,27.4597758 67.4712177,27.0519107 67.5286472,26.5136842 L69.3269761,9.53263158 C69.3580863,9.23537247 69.2587936,8.93916574 69.0538589,8.71787667 C68.8489241,8.49658759 68.5576623,8.37107265 68.2527056,8.37263158 L63.8288594,8.37263158 C63.2765826,8.36969786 62.8120184,8.77756295 62.7545889,9.31578947 L61.8522016,17.9221053 Z" id="Path"></path>
                            <path d="M72.4058355,26.3368421 L73.8668435,13.3242105 L71.8472149,13.3242105 C71.5418432,13.3258336 71.2501976,13.2000348 71.0451879,12.978263 C70.8401781,12.7564912 70.7411807,12.4597072 70.7729443,12.1621053 L71.0780371,9.31368421 C71.1364922,8.77629271 71.6007714,8.36958775 72.1523077,8.37263158 L74.3975332,8.37263158 L75.198939,1.12842105 C75.2584167,0.591864736 75.7224119,0.186317853 76.2732095,0.189473684 L80.8753846,0.189473684 C81.181589,0.187718151 81.4740057,0.314084423 81.6791663,0.536823512 C81.8843269,0.759562602 81.9827311,1.05750337 81.9496552,1.35578947 L81.1718833,8.37263158 L83.6298143,8.37263158 C83.935186,8.37100851 84.2268315,8.49680734 84.4318413,8.71857914 C84.6368511,8.94035095 84.7358485,9.23713489 84.7040849,9.53473684 L84.3732095,12.3810526 C84.31578,12.9192792 83.8512158,13.3271442 83.298939,13.3242105 L80.6132626,13.3242105 L79.4057825,26.5452632 C79.3556109,27.0893303 78.889021,27.5053744 78.3315119,27.5031579 L73.4543236,27.5031579 C73.1526237,27.4977965 72.8671351,27.3683519 72.6676804,27.1464828 C72.4682257,26.9246136 72.373197,26.6307788 72.4058355,26.3368421 Z" id="Path"></path>
                            <path d="M100.704271,10.4042105 C99.5741379,8.84210526 97.5437666,7.91157895 95.1803714,7.91157895 C89.4888859,7.91157895 84.867374,12.8294737 84.867374,18.8757895 C84.867374,24.1157895 88.3544562,27.9284211 93.1564456,27.9284211 C95.4854642,27.9284211 97.668382,27.0315789 99.0950133,25.5389474 L99.0047745,26.2926316 C98.9690526,26.5922798 99.0662586,26.8925438 99.2717245,27.1172249 C99.4771903,27.341906 99.7711648,27.4694058 100.079045,27.4673684 L104.494297,27.4673684 C105.045833,27.4704122 105.510113,27.0637073 105.568568,26.5263158 L107.403422,9.54526316 C107.435185,9.24766121 107.336188,8.95087726 107.131178,8.72910546 C106.926168,8.50733366 106.634523,8.38153483 106.329151,8.38315789 L101.885968,8.38315789 C101.332949,8.38033238 100.868099,8.78935966 100.811698,9.32842105 L100.704271,10.4042105 Z M99.9458355,17.4547368 C99.9458355,20.1536842 97.827374,22.3515789 95.2190451,22.3515789 C92.991008,22.3515789 91.4354642,20.7326316 91.4354642,18.4147368 C91.4354642,15.6926316 93.5539257,13.4778947 96.1622546,13.4778947 C98.3902918,13.4736842 99.9458355,15.1136842 99.9458355,17.4547368 Z" id="Shape" fill-rule="nonzero"></path>
                            <path d="M122.408833,7.91157895 C120.062626,7.91157895 117.856074,8.82526316 116.420849,10.3494737 L117.432812,1.16631579 C117.465888,0.868029688 117.367483,0.570088918 117.162323,0.347349828 C116.957162,0.124610738 116.664745,-0.00175553331 116.358541,3.73968434e-16 L111.938992,3.73968434e-16 C111.387456,-0.00304382882 110.923177,0.403661135 110.864721,0.941052632 L108.138223,26.2947368 C108.106459,26.5923388 108.205457,26.8891227 108.410466,27.1108945 C108.615476,27.3326663 108.907122,27.4584652 109.212493,27.4568421 L113.63634,27.4568421 C114.188616,27.4597758 114.653181,27.0519107 114.71061,26.5136842 L114.822334,25.4610526 C115.774138,26.7557895 117.602546,27.9178947 120.382759,27.9178947 C126.076393,27.9178947 130.710796,23 130.710796,16.9536842 C130.697905,11.7136842 127.210822,7.91157895 122.408833,7.91157895 Z M124.073952,17.4547368 C124.073952,20.1536842 121.955491,22.3515789 119.347162,22.3515789 C117.142759,22.3515789 115.602255,20.7326316 115.602255,18.4147368 C115.602255,15.6926316 117.703528,13.4778947 120.288223,13.4778947 C122.872918,13.4778947 124.073952,15.5389474 124.073952,17.4547368 Z" id="Shape" fill-rule="nonzero"></path>
                            <path d="M132.994695,27.4568421 L137.42069,27.4568421 C137.972226,27.4598859 138.436505,27.053181 138.49496,26.5157895 L141.227905,1.16421053 C141.260323,0.866266245 141.161622,0.568904286 140.956537,0.346649146 C140.751452,0.124394005 140.459422,-0.00168860003 140.153634,-3.22692448e-16 L135.727639,-3.22692448e-16 C135.176103,-0.00304382882 134.711824,0.403661135 134.653369,0.941052632 L131.931167,26.2947368 C131.8996,26.5905144 131.99719,26.8855747 132.199817,27.1069819 C132.402443,27.3283892 132.691194,27.4554812 132.994695,27.4568421 Z" id="Path"></path>
                            <path d="M152.497003,7.87368421 C149.14313,7.87368421 146.276976,9.01052632 144.205782,11.16 C142.272095,13.1789474 141.197825,15.96 141.197825,18.9894737 C141.197825,24.6042105 144.749363,27.9557895 150.700822,27.9557895 C155.816499,27.9557895 159.963183,25.3242105 161.01382,21.4063158 C161.037236,21.3201671 161.018361,21.2282468 160.962765,21.1576751 C160.907169,21.0871034 160.821196,21.0459348 160.730212,21.0463158 L155.307294,21.0463158 C154.94891,21.0414714 154.610587,21.2080109 154.40061,21.4926316 C153.626768,22.5305186 152.39716,23.1481651 151.085411,23.1578947 C149.901565,23.1578947 149.016366,22.8610526 148.4513,22.2757895 C147.961432,21.7663158 147.692865,21.0126316 147.649894,20.0589474 C147.645812,19.9447464 147.689276,19.8338245 147.770309,19.7516452 C147.851342,19.6694659 147.962982,19.6230879 148.079602,19.6231579 L160.850531,19.6231579 C161.052793,19.6289321 161.231761,19.4956561 161.280239,19.3031579 C161.447825,18.6294737 161.815225,17.0484211 161.815225,16.1094737 C161.804483,11.1831579 158.063873,7.87368421 152.497003,7.87368421 Z M148.595252,15.6631579 C148.457442,15.6641919 148.327487,15.6003959 148.245823,15.4916196 C148.164158,15.3828433 148.140695,15.2422871 148.182732,15.1136842 C148.706976,13.4147368 150.183024,12.3578947 152.144642,12.3578947 C153.218912,12.3578947 154.078329,12.6863158 154.649841,13.3073684 C155.115316,13.8453684 155.369756,14.5283722 155.367454,15.2336842 C155.367454,15.4662252 155.175067,15.6547368 154.937745,15.6547368 L148.595252,15.6631579 Z" id="Shape" fill-rule="nonzero"></path>
                            <path d="M18.9071618,18.8168421 C22.8132095,16.9894737 25.2238727,13.3031579 25.2238727,9.12 C25.2238727,6.63578947 24.3644562,4.36 22.7745358,2.70736842 C21.0814854,0.936842105 18.7245358,-3.1198934e-16 15.9572149,-3.1198934e-16 L5.1371618,-3.1198934e-16 C4.58562548,-0.00304382882 4.12134628,0.403661135 4.06289125,0.941052632 L3.2034748,8.90526316 C3.81907557,8.92271897 4.43518982,8.9072574 5.04907162,8.85894737 C6.2465402,8.758432 7.43275151,8.55555476 8.59416446,8.25263158 C8.98519894,8.14947368 9.36549072,8.02947368 9.74363395,7.90315789 L10.1217772,4.36631579 C10.1316506,4.27714179 10.1898169,4.20010829 10.2739565,4.16477481 C10.3580962,4.12944133 10.4551405,4.14129583 10.5278515,4.19578947 L17.4977188,9.43157895 C17.5628724,9.48022272 17.6000268,9.55671363 17.5974683,9.63693596 C17.5949099,9.7171583 17.5529537,9.79122679 17.4848276,9.83578947 L9.38697613,15.0715789 C9.30542084,15.1237813 9.20055312,15.12558 9.11718319,15.0762066 C9.03381325,15.0268331 8.98668702,14.9350203 8.99594164,14.84 L9.28814324,12.1242105 C7.87775499,12.2605697 6.45791275,12.2760671 5.04477454,12.1705263 C3.63938927,12.0536545 2.24949792,11.7990486 0.895941645,11.4105263 C0.728355438,11.3642105 0.562917772,11.3136842 0.399628647,11.2631579 C0.273828821,11.2236434 0.136366539,11.2679506 0.0590736527,11.3729265 C-0.0182192334,11.4779023 -0.0177810806,11.6196953 0.0601591512,11.7242105 L2.48586207,14.9284211 L1.33424403,26.2968421 C1.30248042,26.5944441 1.40147786,26.891228 1.60648762,27.1129998 C1.81149738,27.3347716 2.10314289,27.4605704 2.40851459,27.4589474 L7.17827586,27.4589474 C7.73055264,27.4618811 8.19511691,27.054016 8.25254642,26.5157895 L8.89710875,20.3873684 C8.91925677,20.17141 9.10531181,20.0073334 9.32681698,20.0084211 L11.2196817,20.0084211 C11.3791473,20.0068604 11.52638,20.0919618 11.602122,20.2294737 L15.2546419,26.9031579 C15.441894,27.2439997 15.8049533,27.4566389 16.2,27.4568421 L21.8033952,27.4568421 C22.1802374,27.4569424 22.5295792,27.2635556 22.7239801,26.9472297 C22.918381,26.6309038 22.9294125,26.237897 22.7530504,25.9115789 L18.9071618,18.8168421 Z" id="Path"></path>
                        </g>
                    </g>
                </g>
            </g>
        </g>
    </g>
</svg>